<?xml version="1.0" encoding="UTF-8"?>
<svg version="1.1" xmlns="http://www.w3.org/2000/svg" width="406" height="368">
<path d="M0 0 C0.59989746 0.3805957 1.19979492 0.76119141 1.81787109 1.15332031 C7.32253723 4.71433261 7.32253723 4.71433261 9.5 7.3125 C10.6157098 15.9479124 7.48586366 23.72243789 4.8125 31.8125 C4.34519707 33.25961322 3.87938412 34.7072084 3.41503906 36.15527344 C2.51158561 38.97145227 1.60348178 41.78605391 0.69189453 44.59960938 C-0.68936576 48.90239645 -1.99914888 53.22029064 -3.25 57.5625 C-3.62098266 58.84378217 -3.99207517 60.12503254 -4.36328125 61.40625 C-4.54455566 62.03273438 -4.72583008 62.65921875 -4.91259766 63.3046875 C-6.3055337 68.06591196 -7.75330205 72.81121119 -9.19580078 77.55761719 C-10.5551901 82.05868687 -11.85274262 86.56878548 -13.07421875 91.109375 C-13.46395874 92.53878418 -13.46395874 92.53878418 -13.86157227 93.99707031 C-14.35910629 95.83191597 -14.84582518 97.66973917 -15.32006836 99.51074219 C-16.58009568 104.12860588 -17.55645337 107.26598329 -21.5 110.3125 C-26.8751871 109.00147876 -31.03677884 106.64152644 -34.5 102.3125 C-35.53871788 96.70342346 -33.65010394 92.41899685 -31.5 87.3125 C-32.03882813 87.05984375 -32.57765625 86.8071875 -33.1328125 86.546875 C-35.99943936 85.05206627 -38.65607467 83.31183351 -41.375 81.5625 C-57.25462847 71.68249289 -76.99098541 64.80000541 -95.86328125 69.07421875 C-102.66003648 71.1738269 -107.6843541 73.11946756 -111.3125 79.5 C-113.1374114 85.35892606 -113.05921302 89.99576034 -111.625 95.9375 C-108.53226905 100.84948446 -104.38957364 103.32130489 -99.5 106.3125 C-98.79625244 106.7566626 -98.09250488 107.2008252 -97.36743164 107.65844727 C-90.82929321 111.70955745 -84.06962526 114.97007134 -77.0625 118.125 C-74.75897395 119.17938031 -72.45558958 120.2340702 -70.15234375 121.2890625 C-66.10899852 123.13120434 -62.05924098 124.95788494 -58.00390625 126.7734375 C-48.54034573 131.06304281 -40.54112149 135.70928739 -32.5 142.3125 C-31.51 142.9725 -30.52 143.6325 -29.5 144.3125 C-29.5 144.9725 -29.5 145.6325 -29.5 146.3125 C-28.93410156 146.55226562 -28.36820313 146.79203125 -27.78515625 147.0390625 C-25.02697289 148.57610143 -23.1479272 150.43593118 -20.9375 152.6875 C-20.17308594 153.45835937 -19.40867187 154.22921875 -18.62109375 155.0234375 C-13.5 160.55006906 -13.5 160.55006906 -13.5 163.3125 C-12.84 163.3125 -12.18 163.3125 -11.5 163.3125 C-6.73589293 172.42443293 -2.18925824 181.33393654 0.5 191.3125 C0.83644531 192.50552734 0.83644531 192.50552734 1.1796875 193.72265625 C6.16540547 215.27051953 2.61178543 241.05568392 -8.75 259.9375 C-9.25015625 260.71351563 -9.7503125 261.48953125 -10.265625 262.2890625 C-11.64955487 264.38766763 -11.64955487 264.38766763 -12.5 267.3125 C-13.16 267.3125 -13.82 267.3125 -14.5 267.3125 C-14.809375 267.93125 -15.11875 268.55 -15.4375 269.1875 C-16.125 270.5625 -16.8125 271.9375 -17.5 273.3125 C-18.16 273.3125 -18.82 273.3125 -19.5 273.3125 C-20.16 274.6325 -20.82 275.9525 -21.5 277.3125 C-22.16 277.3125 -22.82 277.3125 -23.5 277.3125 C-23.5 277.9725 -23.5 278.6325 -23.5 279.3125 C-41.85334292 297.3661965 -67.71496407 305.13285719 -93.0390625 305.50390625 C-98.81191039 305.40363088 -104.47359986 304.72824599 -110.1875 303.9375 C-111.16783203 303.81117188 -112.14816406 303.68484375 -113.15820312 303.5546875 C-118.72906102 302.80842388 -124.07728259 301.79200772 -129.5 300.3125 C-130.49 302.2925 -131.48 304.2725 -132.5 306.3125 C-107.65682738 312.32207955 -79.94081912 313.65482416 -55.5 305.3125 C-54.3759375 304.93996094 -53.251875 304.56742187 -52.09375 304.18359375 C-44.83670481 301.44310432 -38.3137448 297.38356063 -31.75 293.30078125 C-28.5 291.3125 -28.5 291.3125 -26.125 290.23046875 C-24.13947717 289.34836919 -24.13947717 289.34836919 -23.5 286.3125 C-22.778125 285.755625 -22.05625 285.19875 -21.3125 284.625 C-18.1634675 282.0357955 -16.13702012 279.25468212 -13.83203125 275.921875 C-13.39246094 275.39078125 -12.95289063 274.8596875 -12.5 274.3125 C-11.84 274.3125 -11.18 274.3125 -10.5 274.3125 C-10.24992188 273.78914063 -9.99984375 273.26578125 -9.7421875 272.7265625 C-8.47360225 270.26119872 -7.08936409 267.87984696 -5.68237305 265.49145508 C-2.04137906 259.27965536 1.20792367 253.16636727 3.5 246.3125 C3.77457031 245.51199219 4.04914063 244.71148437 4.33203125 243.88671875 C11.62840449 220.20046276 9.96987382 193.44354918 -1.6171875 171.5234375 C-3.93221306 167.57540636 -6.46196772 163.8574923 -9.21484375 160.203125 C-10.5 158.3125 -10.5 158.3125 -10.5 156.3125 C-11.16 156.3125 -11.82 156.3125 -12.5 156.3125 C-13.83203125 154.921875 -13.83203125 154.921875 -15.3125 153.0625 C-17.79370595 150.04481709 -20.4374289 147.74454176 -23.5 145.3125 C-23.5 144.6525 -23.5 143.9925 -23.5 143.3125 C-24.08523437 143.03921875 -24.67046875 142.7659375 -25.2734375 142.484375 C-27.44422708 141.34185417 -29.20505744 140.08211411 -31.125 138.5625 C-39.02622504 132.56796912 -47.75429782 128.04714305 -56.52319336 123.47143555 C-57.90492355 122.74964094 -59.28360785 122.02197562 -60.65869141 121.28759766 C-62.24132391 120.44948652 -63.84362115 119.64869776 -65.44921875 118.85546875 C-67.5 117.3125 -67.5 117.3125 -68.22705078 115.04785156 C-68.54469866 111.86455381 -68.00957423 109.9995809 -66.91796875 107.00390625 C-66.38526367 105.51213867 -66.38526367 105.51213867 -65.84179688 103.99023438 C-65.46087891 102.96220703 -65.07996094 101.93417969 -64.6875 100.875 C-63.95174605 98.83466313 -63.21606678 96.79429934 -62.48046875 94.75390625 C-62.13032715 93.80402832 -61.78018555 92.85415039 -61.41943359 91.87548828 C-60.69061732 89.8438597 -60.04331402 87.78301713 -59.42578125 85.71484375 C-58.5 83.3125 -58.5 83.3125 -55.5 81.3125 C-50.5031322 81.59534157 -46.84577931 82.8746238 -42.5 85.3125 C-41.9355282 92.65063334 -43.94672896 98.47338115 -46.5 105.3125 C-45.96375 105.55742187 -45.4275 105.80234375 -44.875 106.0546875 C-38.99028913 108.86153972 -33.41827086 112.07976249 -27.875 115.5 C-27.15183594 115.94005371 -26.42867187 116.38010742 -25.68359375 116.83349609 C-23.91895312 117.93639649 -22.20398432 119.11801968 -20.5 120.3125 C-20.5 120.9725 -20.5 121.6325 -20.5 122.3125 C-19.7575 122.580625 -19.015 122.84875 -18.25 123.125 C-15.60938051 124.26526751 -13.64447156 125.40630306 -11.5 127.3125 C-11.5 127.9725 -11.5 128.6325 -11.5 129.3125 C-10.943125 129.539375 -10.38625 129.76625 -9.8125 130 C-6.83840412 131.68800036 -4.77991135 133.77926517 -2.5 136.3125 C-2.5 136.9725 -2.5 137.6325 -2.5 138.3125 C-1.84 138.3125 -1.18 138.3125 -0.5 138.3125 C1.6166733 140.61409194 3.33346277 143.2535546 5.125 145.8125 C5.66189453 146.57771973 6.19878906 147.34293945 6.75195312 148.13134766 C11.81746599 155.51274021 15.8657192 163.14418926 19.5 171.3125 C19.90734375 172.21742188 20.3146875 173.12234375 20.734375 174.0546875 C31.8419935 201.48196088 29.52360882 233.27841171 18.5 260.3125 C8.86242676 282.05245848 8.86242676 282.05245848 1.86328125 288.91796875 C0.23435284 290.38102418 0.23435284 290.38102418 -0.5 293.3125 C-1.98828125 294.7421875 -1.98828125 294.7421875 -3.8125 296.1875 C-5.98223791 297.91011188 -7.60239204 299.44864765 -9.27734375 301.67578125 C-12.07220423 304.99130115 -15.17548984 307.2076091 -18.75 309.625 C-19.44947754 310.10138916 -20.14895508 310.57777832 -20.86962891 311.06860352 C-28.08357608 315.87172209 -35.63217968 319.70819929 -43.5 323.3125 C-44.76650391 323.92544922 -44.76650391 323.92544922 -46.05859375 324.55078125 C-58.41944112 330.09923787 -73.09465516 331.95063793 -86.5 332.3125 C-87.47839844 332.34085937 -88.45679688 332.36921875 -89.46484375 332.3984375 C-107.1625455 332.63599054 -124.1460402 330.88234724 -140.9375 325.125 C-142.70637573 324.52606934 -142.70637573 324.52606934 -144.51098633 323.91503906 C-155.99919207 319.93942026 -166.33303743 314.99195797 -176.5 308.3125 C-177.93085938 307.42498047 -177.93085938 307.42498047 -179.390625 306.51953125 C-180.39609375 305.89433594 -181.4015625 305.26914062 -182.4375 304.625 C-183.84322266 303.75294922 -183.84322266 303.75294922 -185.27734375 302.86328125 C-187.5 301.3125 -187.5 301.3125 -188.5 299.3125 C-188.41071013 292.5893571 -186.8743569 286.35871725 -184.83203125 280 C-184.28571585 278.24096435 -183.73966304 276.48184712 -183.19384766 274.72265625 C-182.91285217 273.82820801 -182.63185669 272.93375977 -182.34234619 272.01220703 C-180.9860428 267.66527481 -179.6896499 263.30065997 -178.38671875 258.9375 C-173.44459235 242.48849337 -168.49064391 226.04429955 -163.25 209.6875 C-162.87963623 208.52734375 -162.50927246 207.3671875 -162.12768555 206.171875 C-161.79164307 205.13289062 -161.45560059 204.09390625 -161.109375 203.0234375 C-160.82030273 202.12931152 -160.53123047 201.23518555 -160.23339844 200.31396484 C-159.5 198.3125 -159.5 198.3125 -158.5 197.3125 C-153.09199748 197.42066005 -149.69772075 198.82058265 -145.81640625 202.44140625 C-143.39310775 205.88579789 -143.94513048 209.30356772 -144.5 213.3125 C-144.5825 214.01632813 -144.665 214.72015625 -144.75 215.4453125 C-144.96090712 217.07325182 -145.22454991 218.69423071 -145.5 220.3125 C-128.67247119 233.06885248 -108.87955202 240.81328136 -87.5 239.3125 C-81.81282184 238.25526816 -76.16165709 236.8864371 -71.5 233.3125 C-71.17 232.6525 -70.84 231.9925 -70.5 231.3125 C-69.84 231.3125 -69.18 231.3125 -68.5 231.3125 C-66.63759732 227.35119906 -66.22961375 224.17515773 -66.25 219.8125 C-66.24484375 218.7090625 -66.2396875 217.605625 -66.234375 216.46875 C-66.49696385 213.34857666 -67.17561218 211.12945186 -68.5 208.3125 C-69.16 208.3125 -69.82 208.3125 -70.5 208.3125 C-71.139375 207.631875 -71.77875 206.95125 -72.4375 206.25 C-81.72610985 196.69215508 -95.60746009 191.63097084 -107.79931641 186.78955078 C-125.99932507 179.53697825 -146.33651202 169.07998442 -158.5 153.3125 C-159.16 152.9825 -159.82 152.6525 -160.5 152.3125 C-160.5 151.6525 -160.5 150.9925 -160.5 150.3125 C-161.16 150.3125 -161.82 150.3125 -162.5 150.3125 C-163.55370523 148.67925689 -164.53567924 147.00006133 -165.5 145.3125 C-166.4372369 143.99981211 -167.37476841 142.68733455 -168.3125 141.375 C-176.53401739 129.08362698 -180.84774983 114.81738586 -181.3125 100.125 C-181.34746582 99.1239624 -181.38243164 98.1229248 -181.41845703 97.09155273 C-181.86195599 79.69886252 -177.85636169 64.37067689 -171.5 48.3125 C-170.84 48.3125 -170.18 48.3125 -169.5 48.3125 C-169.27441406 47.45398438 -169.04882812 46.59546875 -168.81640625 45.7109375 C-167.30730177 41.81502979 -165.15858258 39.03328144 -162.4375 35.9375 C-161.94290283 35.36805664 -161.44830566 34.79861328 -160.9387207 34.21191406 C-149.33332728 21.05427825 -136.17636612 12.48727273 -119.5 7.3125 C-118.82630371 7.06371094 -118.15260742 6.81492187 -117.45849609 6.55859375 C-111.57932315 4.42308021 -105.97243032 3.55058605 -99.75 3.0625 C-98.75282959 2.98169189 -97.75565918 2.90088379 -96.72827148 2.81762695 C-80.45079645 1.65944919 -63.12361477 2.10462841 -47.5 7.3125 C-47.5 5.3325 -47.5 3.3525 -47.5 1.3125 C-50.5202423 0.66379661 -53.54113979 0.01845844 -56.5625 -0.625 C-57.41005859 -0.80740234 -58.25761719 -0.98980469 -59.13085938 -1.17773438 C-86.54979231 -7.0002877 -117.08690457 -4.43366502 -141.5 10.3125 C-153.21244695 18.02135369 -153.21244695 18.02135369 -162.5 28.3125 C-163.16 28.3125 -163.82 28.3125 -164.5 28.3125 C-164.76554687 28.88613281 -165.03109375 29.45976563 -165.3046875 30.05078125 C-166.55358844 32.41389773 -168.00706252 34.37410541 -169.625 36.5 C-184.69007656 57.88674752 -189.76528011 84.93056145 -185.96875 110.67578125 C-185.29677418 113.95896744 -184.49241779 117.11280816 -183.5 120.3125 C-183.2215625 121.25609375 -182.943125 122.1996875 -182.65625 123.171875 C-178.89804756 134.64087209 -172.23012595 144.17973023 -164.5 153.3125 C-164.005 153.96476563 -163.51 154.61703125 -163 155.2890625 C-150.09275394 171.62479579 -128.96123238 180.90883974 -110.5 189.3125 C-110.0597897 195.56010009 -111.59606333 200.35868363 -113.75 206.1875 C-114.05035156 207.03441406 -114.35070312 207.88132813 -114.66015625 208.75390625 C-120.1240468 223.9365468 -120.1240468 223.9365468 -122.5 226.3125 C-125.77993617 226.8724891 -127.81990565 226.73130137 -130.67578125 224.97265625 C-132.66652375 223.4698755 -134.60232204 221.93082435 -136.5 220.3125 C-135.98378772 213.47268724 -134.01409031 207.67373316 -131.5 201.3125 C-132.20769531 201.21195313 -132.91539062 201.11140625 -133.64453125 201.0078125 C-145.57936953 198.10165489 -156.85644342 187.67548577 -166.5 180.3125 C-167.7684375 179.384375 -167.7684375 179.384375 -169.0625 178.4375 C-189.15355636 160.9222201 -202.81190578 133.75004522 -205.5 107.3125 C-206.51492439 80.89653223 -206.51492439 80.89653223 -203.5 68.3125 C-203.32227051 67.52488281 -203.14454102 66.73726563 -202.96142578 65.92578125 C-199.90516664 52.6017557 -195.58791944 41.0005062 -188.5 29.3125 C-188.06445801 28.56967773 -187.62891602 27.82685547 -187.18017578 27.06152344 C-186.74044434 26.32708008 -186.30071289 25.59263672 -185.84765625 24.8359375 C-185.44683838 24.16224121 -185.04602051 23.48854492 -184.63305664 22.79443359 C-184.25914795 22.30539551 -183.88523926 21.81635742 -183.5 21.3125 C-182.84 21.3125 -182.18 21.3125 -181.5 21.3125 C-181.273125 20.61125 -181.04625 19.91 -180.8125 19.1875 C-177.52568508 11.98781018 -170.80583459 5.91405497 -164.5 1.3125 C-163.84 1.3125 -163.18 1.3125 -162.5 1.3125 C-162.5 0.6525 -162.5 -0.0075 -162.5 -0.6875 C-160.07220206 -2.38936828 -157.65394976 -3.96152038 -155.125 -5.5 C-154.39273193 -5.95068848 -153.66046387 -6.40137695 -152.90600586 -6.86572266 C-147.57564519 -10.11294711 -142.19030148 -13.11310463 -136.5 -15.6875 C-135.86247803 -15.99888916 -135.22495605 -16.31027832 -134.56811523 -16.63110352 C-128.94910806 -19.28981715 -123.53929726 -20.76855321 -117.4375 -21.875 C-116.59123047 -22.03935547 -115.74496094 -22.20371094 -114.87304688 -22.37304688 C-74.57488087 -30.04740848 -34.42560798 -21.90801272 0 0 Z M-28.5 8.3125 C-28.83 10.6225 -29.16 12.9325 -29.5 15.3125 C-26.87690901 16.48362946 -24.25171858 17.64955964 -21.625 18.8125 C-20.87863281 19.14636719 -20.13226563 19.48023438 -19.36328125 19.82421875 C-18.64785156 20.14003906 -17.93242187 20.45585938 -17.1953125 20.78125 C-16.53547363 21.07451172 -15.87563477 21.36777344 -15.19580078 21.66992188 C-13.49053793 22.43061255 -13.49053793 22.43061255 -11.5 22.3125 C-11.17 20.6625 -10.84 19.0125 -10.5 17.3125 C-12.93278544 15.80435257 -15.37066027 14.30585653 -17.8125 12.8125 C-18.50279297 12.38324219 -19.19308594 11.95398437 -19.90429688 11.51171875 C-20.57138672 11.10566406 -21.23847656 10.69960938 -21.92578125 10.28125 C-22.53848877 9.90419922 -23.15119629 9.52714844 -23.7824707 9.13867188 C-25.63293094 8.09575974 -25.63293094 8.09575974 -28.5 8.3125 Z M-35.5 34.3125 C-35.69335938 34.91578125 -35.88671875 35.5190625 -36.0859375 36.140625 C-36.34632813 36.93984375 -36.60671875 37.7390625 -36.875 38.5625 C-37.25785156 39.74585937 -37.25785156 39.74585937 -37.6484375 40.953125 C-38.45173667 43.17877958 -39.39711662 45.22181672 -40.5 47.3125 C-46.06192316 46.92891909 -51.022743 45.96063561 -56.375 44.375 C-74.92004444 38.96110698 -95.54544232 36.9462199 -113.39453125 45.73828125 C-119.29711291 49.08278945 -124.85296643 52.81523579 -127.5 59.3125 C-128.16 59.3125 -128.82 59.3125 -129.5 59.3125 C-130.46608323 61.16264053 -131.4224907 63.01783473 -132.375 64.875 C-132.90867187 65.90753906 -133.44234375 66.94007812 -133.9921875 68.00390625 C-139.44778534 79.97512742 -139.15913898 94.17244801 -134.76953125 106.47265625 C-124.42363269 129.61563549 -97.64389982 139.80320586 -75.94824219 149.38232422 C-63.15280235 155.09248924 -44.07265316 164.16719368 -37.5 177.3125 C-36.84 177.3125 -36.18 177.3125 -35.5 177.3125 C-35.21898437 178.04855469 -34.93796875 178.78460938 -34.6484375 179.54296875 C-33.61574142 182.0333821 -32.43585634 184.27464292 -31.125 186.625 C-22.27877196 204.23893927 -21.69935391 224.76942455 -27.453125 243.3984375 C-28.98300684 247.34456128 -30.87354321 251.05493547 -32.8125 254.8125 C-33.369375 255.9675 -33.92625 257.1225 -34.5 258.3125 C-34.17 258.9725 -33.84 259.6325 -33.5 260.3125 C-32.12437146 259.02284824 -30.79233607 257.68560707 -29.5 256.3125 C-29.5 255.6525 -29.5 254.9925 -29.5 254.3125 C-28.84 254.3125 -28.18 254.3125 -27.5 254.3125 C-16.54440395 239.21154329 -13.40868179 220.45088028 -15.77246094 202.20996094 C-17.89271018 190.10712179 -23.61140633 178.79039957 -32.5 170.3125 C-33.139375 169.4875 -33.77875 168.6625 -34.4375 167.8125 C-36.9006723 164.82683661 -39.41879373 162.65689608 -42.5 160.3125 C-43.16 160.3125 -43.82 160.3125 -44.5 160.3125 C-44.5 159.6525 -44.5 158.9925 -44.5 158.3125 C-48.56573561 155.11689959 -48.56573561 155.11689959 -53.5 154.3125 C-53.5 153.6525 -53.5 152.9925 -53.5 152.3125 C-61.94442623 147.04039847 -70.6044673 142.85444992 -79.75 138.9375 C-114.01778731 124.1730785 -114.01778731 124.1730785 -122.12890625 113.0859375 C-122.58136719 112.50070313 -123.03382813 111.91546875 -123.5 111.3125 C-124.16 111.3125 -124.82 111.3125 -125.5 111.3125 C-125.933125 109.9821875 -125.933125 109.9821875 -126.375 108.625 C-127.38891615 105.45474803 -127.38891615 105.45474803 -128.5234375 103.078125 C-131.74199943 93.9631576 -131.35950793 81.4191311 -128.5 72.3125 C-126.4557466 68.04293076 -124.21482488 63.98772153 -120.80859375 60.66015625 C-119.26778906 59.3864333 -119.26778906 59.3864333 -119.5 57.3125 C-118.5409375 56.9721875 -118.5409375 56.9721875 -117.5625 56.625 C-114.18795058 55.17876453 -111.12634309 53.4096646 -107.9765625 51.53125 C-93.33016844 44.32356081 -72.03187496 46.77987027 -56.921875 51.46801758 C-47.03369646 54.88119102 -34.76485014 59.53152939 -27.5 67.3125 C-26.51 66.9825 -25.52 66.6525 -24.5 66.3125 C-23.50845556 64.3770893 -23.50845556 64.3770893 -22.859375 61.98046875 C-22.59382813 61.09939453 -22.32828125 60.21832031 -22.0546875 59.31054688 C-21.78914063 58.38306641 -21.52359375 57.45558594 -21.25 56.5 C-20.96898437 55.58412109 -20.68796875 54.66824219 -20.3984375 53.72460938 C-18.52941491 48.03763148 -18.52941491 48.03763148 -19.5 42.3125 C-21.85372282 40.58126586 -21.85372282 40.58126586 -24.75 39.1875 C-25.70390625 38.68992187 -26.6578125 38.19234375 -27.640625 37.6796875 C-30.22818723 36.44246512 -32.82270969 35.33846891 -35.5 34.3125 Z M-141.5 42.3125 C-142.87562854 43.60215176 -144.20766393 44.93939293 -145.5 46.3125 C-145.5 46.9725 -145.5 47.6325 -145.5 48.3125 C-146.16 48.3125 -146.82 48.3125 -147.5 48.3125 C-149.24577551 50.61225231 -150.85421768 52.90444868 -152.4375 55.3125 C-153.10168945 56.28509766 -153.10168945 56.28509766 -153.77929688 57.27734375 C-156.76547455 61.77218645 -158.82278998 66.19237912 -160.5 71.3125 C-160.81324219 72.20453125 -161.12648437 73.0965625 -161.44921875 74.015625 C-166.51639112 91.49602915 -163.85692086 108.39154057 -155.94140625 124.48046875 C-153.32214919 129.08627922 -150.40676931 132.70625141 -146.5 136.3125 C-145.59206893 137.40674063 -144.69631317 138.51118867 -143.8125 139.625 C-143.049375 140.511875 -142.28625 141.39875 -141.5 142.3125 C-140.84 142.3125 -140.18 142.3125 -139.5 142.3125 C-139.5 142.9725 -139.5 143.6325 -139.5 144.3125 C-126.73277126 155.55812234 -111.34977439 163.1643666 -95.875 169.875 C-86.57231073 173.91223854 -77.76615808 178.0831046 -69.25634766 183.62866211 C-66.57976403 185.3843235 -66.57976403 185.3843235 -63.70068359 186.35375977 C-62.97445801 186.67014404 -62.24823242 186.98652832 -61.5 187.3125 C-61.17 188.3025 -60.84 189.2925 -60.5 190.3125 C-59.84 190.3125 -59.18 190.3125 -58.5 190.3125 C-58.231875 190.910625 -57.96375 191.50875 -57.6875 192.125 C-56.65174264 194.31217129 -56.65174264 194.31217129 -55.08984375 195.6171875 C-49.17447581 201.92497543 -47.67277468 211.55857844 -47.37109375 219.859375 C-47.79444225 231.19998337 -51.91600299 241.31293007 -60.25 249.125 C-72.67609045 259.12246176 -87.07083301 260.41360329 -102.5 259.3125 C-119.66781784 257.39143297 -135.68588415 251.46543989 -149.7578125 241.4140625 C-151.43820168 240.13435976 -151.43820168 240.13435976 -153.5 240.3125 C-154.32134989 242.80988858 -155.13215748 245.30994805 -155.9375 247.8125 C-156.16759766 248.50859375 -156.39769531 249.2046875 -156.63476562 249.921875 C-158.17049584 254.72937828 -159.0077359 259.28801131 -159.5 264.3125 C-158.10823368 265.27673026 -156.7113777 266.23361602 -155.3125 267.1875 C-154.53519531 267.72117187 -153.75789063 268.25484375 -152.95703125 268.8046875 C-149.43956626 270.96325902 -146.65636365 272.3125 -142.5 272.3125 C-141.99487756 270.70993892 -141.49608373 269.10538208 -141 267.5 C-140.7215625 266.60667969 -140.443125 265.71335937 -140.15625 264.79296875 C-139.37211649 262.25676605 -139.37211649 262.25676605 -139.5 259.3125 C-134.25364403 259.53574919 -129.6478288 260.05833001 -124.8125 262.1875 C-114.39228076 266.59358036 -103.93831103 267.59007699 -92.75 267.6875 C-91.33134644 267.70828613 -91.33134644 267.70828613 -89.8840332 267.72949219 C-75.41084383 267.63378503 -63.53685638 262.29671034 -53 252.375 C-43.5661112 242.20626091 -40.5 229.91616728 -40.5 216.3125 C-41.57272067 203.47337447 -46.24256368 194.21087892 -55.5 185.3125 C-57.15836789 183.96885886 -58.82375695 182.63377393 -60.5 181.3125 C-61.36625 180.3534375 -61.36625 180.3534375 -62.25 179.375 C-65.61363742 176.2916657 -69.48060913 174.43478341 -73.5 172.3125 C-74.58539063 171.71308594 -75.67078125 171.11367187 -76.7890625 170.49609375 C-83.58532403 166.76167995 -90.44301495 163.38866199 -97.5625 160.3125 C-110.16208035 154.84245789 -123.84050622 148.34247764 -133.5 138.375 C-134.16 137.694375 -134.82 137.01375 -135.5 136.3125 C-136.16 136.3125 -136.82 136.3125 -137.5 136.3125 C-137.5 135.6525 -137.5 134.9925 -137.5 134.3125 C-138.16 134.3125 -138.82 134.3125 -139.5 134.3125 C-139.77070313 133.74917969 -140.04140625 133.18585938 -140.3203125 132.60546875 C-141.56040555 130.19508921 -142.94417711 127.92691972 -144.375 125.625 C-154.87825807 108.20496222 -156.74872971 88.42078483 -152.75 68.59375 C-150.22024598 59.73961093 -146.15951186 51.58421702 -140.5 44.3125 C-140.83 43.6525 -141.16 42.9925 -141.5 42.3125 Z M-36.5 261.3125 C-36.5 264.3125 -36.5 264.3125 -36.5 264.3125 Z M-166.5 284.3125 C-167.7403303 285.35842145 -167.7403303 285.35842145 -167.8828125 287.64453125 C-167.76641764 290.4985807 -167.76641764 290.4985807 -165.3046875 292.26171875 C-164.33789062 292.83535156 -163.37109375 293.40898437 -162.375 294 C-161.42367187 294.58136719 -160.47234375 295.16273438 -159.4921875 295.76171875 C-156.54394085 297.28972648 -153.67484452 298.35627828 -150.5 299.3125 C-149.0393715 296.66511084 -148.5 295.41801666 -148.5 292.3125 C-149.29664063 291.98636719 -150.09328125 291.66023438 -150.9140625 291.32421875 C-156.20056742 289.14401782 -161.44083489 286.98261492 -166.5 284.3125 Z " fill="#047CF6" transform="translate(277.5,34.6875)"/>
</svg>
